%TF.GenerationSoftware,KiCad,Pcbnew,(5.0.2)-1*%
%TF.CreationDate,2019-01-10T22:37:42-06:00*%
%TF.ProjectId,ArduinoShield,41726475-696e-46f5-9368-69656c642e6b,rev?*%
%TF.SameCoordinates,PX69db1f0PY7882d48*%
%TF.FileFunction,Legend,Top*%
%TF.FilePolarity,Positive*%
%FSLAX46Y46*%
G04 Gerber Fmt 4.6, Leading zero omitted, Abs format (unit mm)*
G04 Created by KiCad (PCBNEW (5.0.2)-1) date 1/10/2019 10:37:42 PM*
%MOMM*%
%LPD*%
G01*
G04 APERTURE LIST*
%ADD10C,0.167500*%
%ADD11C,0.125000*%
%ADD12C,0.120000*%
%ADD13C,0.150000*%
%ADD14C,0.108000*%
G04 APERTURE END LIST*
D10*
X26852666Y20197953D02*
X26900285Y20229858D01*
X27043142Y20293667D01*
X27138380Y20325572D01*
X27281238Y20357477D01*
X27519333Y20389381D01*
X27709809Y20389381D01*
X27947904Y20357477D01*
X28090761Y20325572D01*
X28186000Y20293667D01*
X28328857Y20229858D01*
X28376476Y20197953D01*
X27233619Y19559858D02*
X27709809Y19783191D01*
X27233619Y19942715D02*
X28233619Y19942715D01*
X28233619Y19687477D01*
X28186000Y19623667D01*
X28138380Y19591762D01*
X28043142Y19559858D01*
X27900285Y19559858D01*
X27805047Y19591762D01*
X27757428Y19623667D01*
X27709809Y19687477D01*
X27709809Y19942715D01*
X27757428Y19272715D02*
X27757428Y19049381D01*
X27233619Y18953667D02*
X27233619Y19272715D01*
X28233619Y19272715D01*
X28233619Y18953667D01*
X28233619Y18762239D02*
X27233619Y18538905D01*
X28233619Y18315572D01*
X26852666Y18156048D02*
X26900285Y18124143D01*
X27043142Y18060334D01*
X27138380Y18028429D01*
X27281238Y17996524D01*
X27519333Y17964620D01*
X27709809Y17964620D01*
X27947904Y17996524D01*
X28090761Y18028429D01*
X28186000Y18060334D01*
X28328857Y18124143D01*
X28376476Y18156048D01*
D11*
X24001000Y47198870D02*
X24001000Y47517917D01*
X24215285Y47135060D02*
X23465285Y47358393D01*
X24215285Y47581727D01*
X24215285Y48187917D02*
X23858142Y47964584D01*
X24215285Y47805060D02*
X23465285Y47805060D01*
X23465285Y48060298D01*
X23501000Y48124108D01*
X23536714Y48156012D01*
X23608142Y48187917D01*
X23715285Y48187917D01*
X23786714Y48156012D01*
X23822428Y48124108D01*
X23858142Y48060298D01*
X23858142Y47805060D01*
X23822428Y48475060D02*
X23822428Y48698393D01*
X24215285Y48794108D02*
X24215285Y48475060D01*
X23465285Y48475060D01*
X23465285Y48794108D01*
X23822428Y49304584D02*
X23822428Y49081250D01*
X24215285Y49081250D02*
X23465285Y49081250D01*
X23465285Y49400298D01*
X26041000Y47581727D02*
X26005285Y47517917D01*
X26005285Y47422203D01*
X26041000Y47326489D01*
X26112428Y47262679D01*
X26183857Y47230774D01*
X26326714Y47198870D01*
X26433857Y47198870D01*
X26576714Y47230774D01*
X26648142Y47262679D01*
X26719571Y47326489D01*
X26755285Y47422203D01*
X26755285Y47486012D01*
X26719571Y47581727D01*
X26683857Y47613631D01*
X26433857Y47613631D01*
X26433857Y47486012D01*
X26755285Y47900774D02*
X26005285Y47900774D01*
X26755285Y48283631D01*
X26005285Y48283631D01*
X26755285Y48602679D02*
X26005285Y48602679D01*
X26005285Y48762203D01*
X26041000Y48857917D01*
X26112428Y48921727D01*
X26183857Y48953631D01*
X26326714Y48985536D01*
X26433857Y48985536D01*
X26576714Y48953631D01*
X26648142Y48921727D01*
X26719571Y48857917D01*
X26755285Y48762203D01*
X26755285Y48602679D01*
X30819285Y4304774D02*
X30069285Y4304774D01*
X30069285Y4751441D02*
X30069285Y4879060D01*
X30105000Y4942870D01*
X30176428Y5006679D01*
X30319285Y5038584D01*
X30569285Y5038584D01*
X30712142Y5006679D01*
X30783571Y4942870D01*
X30819285Y4879060D01*
X30819285Y4751441D01*
X30783571Y4687631D01*
X30712142Y4623822D01*
X30569285Y4591917D01*
X30319285Y4591917D01*
X30176428Y4623822D01*
X30105000Y4687631D01*
X30069285Y4751441D01*
X30819285Y5708584D02*
X30462142Y5485250D01*
X30819285Y5325727D02*
X30069285Y5325727D01*
X30069285Y5580965D01*
X30105000Y5644774D01*
X30140714Y5676679D01*
X30212142Y5708584D01*
X30319285Y5708584D01*
X30390714Y5676679D01*
X30426428Y5644774D01*
X30462142Y5580965D01*
X30462142Y5325727D01*
X30426428Y5995727D02*
X30426428Y6219060D01*
X30819285Y6314774D02*
X30819285Y5995727D01*
X30069285Y5995727D01*
X30069285Y6314774D01*
X30426428Y6825250D02*
X30426428Y6601917D01*
X30819285Y6601917D02*
X30069285Y6601917D01*
X30069285Y6920965D01*
X33359285Y4687631D02*
X33002142Y4464298D01*
X33359285Y4304774D02*
X32609285Y4304774D01*
X32609285Y4560012D01*
X32645000Y4623822D01*
X32680714Y4655727D01*
X32752142Y4687631D01*
X32859285Y4687631D01*
X32930714Y4655727D01*
X32966428Y4623822D01*
X33002142Y4560012D01*
X33002142Y4304774D01*
X32966428Y4974774D02*
X32966428Y5198108D01*
X33359285Y5293822D02*
X33359285Y4974774D01*
X32609285Y4974774D01*
X32609285Y5293822D01*
X33323571Y5549060D02*
X33359285Y5644774D01*
X33359285Y5804298D01*
X33323571Y5868108D01*
X33287857Y5900012D01*
X33216428Y5931917D01*
X33145000Y5931917D01*
X33073571Y5900012D01*
X33037857Y5868108D01*
X33002142Y5804298D01*
X32966428Y5676679D01*
X32930714Y5612870D01*
X32895000Y5580965D01*
X32823571Y5549060D01*
X32752142Y5549060D01*
X32680714Y5580965D01*
X32645000Y5612870D01*
X32609285Y5676679D01*
X32609285Y5836203D01*
X32645000Y5931917D01*
X32966428Y6219060D02*
X32966428Y6442393D01*
X33359285Y6538108D02*
X33359285Y6219060D01*
X32609285Y6219060D01*
X32609285Y6538108D01*
X32609285Y6729536D02*
X32609285Y7112393D01*
X33359285Y6920965D02*
X32609285Y6920965D01*
X35149285Y4240965D02*
X35149285Y4655727D01*
X35435000Y4432393D01*
X35435000Y4528108D01*
X35470714Y4591917D01*
X35506428Y4623822D01*
X35577857Y4655727D01*
X35756428Y4655727D01*
X35827857Y4623822D01*
X35863571Y4591917D01*
X35899285Y4528108D01*
X35899285Y4336679D01*
X35863571Y4272870D01*
X35827857Y4240965D01*
X35827857Y4942870D02*
X35863571Y4974774D01*
X35899285Y4942870D01*
X35863571Y4910965D01*
X35827857Y4942870D01*
X35899285Y4942870D01*
X35149285Y5198108D02*
X35149285Y5612870D01*
X35435000Y5389536D01*
X35435000Y5485250D01*
X35470714Y5549060D01*
X35506428Y5580965D01*
X35577857Y5612870D01*
X35756428Y5612870D01*
X35827857Y5580965D01*
X35863571Y5549060D01*
X35899285Y5485250D01*
X35899285Y5293822D01*
X35863571Y5230012D01*
X35827857Y5198108D01*
X35149285Y5804298D02*
X35899285Y6027631D01*
X35149285Y6250965D01*
X37689285Y4623822D02*
X37689285Y4304774D01*
X38046428Y4272870D01*
X38010714Y4304774D01*
X37975000Y4368584D01*
X37975000Y4528108D01*
X38010714Y4591917D01*
X38046428Y4623822D01*
X38117857Y4655727D01*
X38296428Y4655727D01*
X38367857Y4623822D01*
X38403571Y4591917D01*
X38439285Y4528108D01*
X38439285Y4368584D01*
X38403571Y4304774D01*
X38367857Y4272870D01*
X37689285Y4847155D02*
X38439285Y5070489D01*
X37689285Y5293822D01*
X40265000Y4655727D02*
X40229285Y4591917D01*
X40229285Y4496203D01*
X40265000Y4400489D01*
X40336428Y4336679D01*
X40407857Y4304774D01*
X40550714Y4272870D01*
X40657857Y4272870D01*
X40800714Y4304774D01*
X40872142Y4336679D01*
X40943571Y4400489D01*
X40979285Y4496203D01*
X40979285Y4560012D01*
X40943571Y4655727D01*
X40907857Y4687631D01*
X40657857Y4687631D01*
X40657857Y4560012D01*
X40979285Y4974774D02*
X40229285Y4974774D01*
X40979285Y5357631D01*
X40229285Y5357631D01*
X40979285Y5676679D02*
X40229285Y5676679D01*
X40229285Y5836203D01*
X40265000Y5931917D01*
X40336428Y5995727D01*
X40407857Y6027631D01*
X40550714Y6059536D01*
X40657857Y6059536D01*
X40800714Y6027631D01*
X40872142Y5995727D01*
X40943571Y5931917D01*
X40979285Y5836203D01*
X40979285Y5676679D01*
X42805000Y4655727D02*
X42769285Y4591917D01*
X42769285Y4496203D01*
X42805000Y4400489D01*
X42876428Y4336679D01*
X42947857Y4304774D01*
X43090714Y4272870D01*
X43197857Y4272870D01*
X43340714Y4304774D01*
X43412142Y4336679D01*
X43483571Y4400489D01*
X43519285Y4496203D01*
X43519285Y4560012D01*
X43483571Y4655727D01*
X43447857Y4687631D01*
X43197857Y4687631D01*
X43197857Y4560012D01*
X43519285Y4974774D02*
X42769285Y4974774D01*
X43519285Y5357631D01*
X42769285Y5357631D01*
X43519285Y5676679D02*
X42769285Y5676679D01*
X42769285Y5836203D01*
X42805000Y5931917D01*
X42876428Y5995727D01*
X42947857Y6027631D01*
X43090714Y6059536D01*
X43197857Y6059536D01*
X43340714Y6027631D01*
X43412142Y5995727D01*
X43483571Y5931917D01*
X43519285Y5836203D01*
X43519285Y5676679D01*
X45309285Y4209060D02*
X46059285Y4432393D01*
X45309285Y4655727D01*
X46059285Y4879060D02*
X45559285Y4879060D01*
X45309285Y4879060D02*
X45345000Y4847155D01*
X45380714Y4879060D01*
X45345000Y4910965D01*
X45309285Y4879060D01*
X45380714Y4879060D01*
X45559285Y5198108D02*
X46059285Y5198108D01*
X45630714Y5198108D02*
X45595000Y5230012D01*
X45559285Y5293822D01*
X45559285Y5389536D01*
X45595000Y5453346D01*
X45666428Y5485250D01*
X46059285Y5485250D01*
X50389285Y4240965D02*
X51139285Y4687631D01*
X50389285Y4687631D02*
X51139285Y4240965D01*
X51103571Y5198108D02*
X51139285Y5134298D01*
X51139285Y5006679D01*
X51103571Y4942870D01*
X51032142Y4910965D01*
X50746428Y4910965D01*
X50675000Y4942870D01*
X50639285Y5006679D01*
X50639285Y5134298D01*
X50675000Y5198108D01*
X50746428Y5230012D01*
X50817857Y5230012D01*
X50889285Y4910965D01*
X50639285Y5517155D02*
X51139285Y5517155D01*
X50710714Y5517155D02*
X50675000Y5549060D01*
X50639285Y5612870D01*
X50639285Y5708584D01*
X50675000Y5772393D01*
X50746428Y5804298D01*
X51139285Y5804298D01*
X51139285Y6410489D02*
X50746428Y6410489D01*
X50675000Y6378584D01*
X50639285Y6314774D01*
X50639285Y6187155D01*
X50675000Y6123346D01*
X51103571Y6410489D02*
X51139285Y6346679D01*
X51139285Y6187155D01*
X51103571Y6123346D01*
X51032142Y6091441D01*
X50960714Y6091441D01*
X50889285Y6123346D01*
X50853571Y6187155D01*
X50853571Y6346679D01*
X50817857Y6410489D01*
X53322142Y4432393D02*
X53679285Y4432393D01*
X52929285Y4209060D02*
X53322142Y4432393D01*
X52929285Y4655727D01*
X53643571Y5134298D02*
X53679285Y5070489D01*
X53679285Y4942870D01*
X53643571Y4879060D01*
X53572142Y4847155D01*
X53286428Y4847155D01*
X53215000Y4879060D01*
X53179285Y4942870D01*
X53179285Y5070489D01*
X53215000Y5134298D01*
X53286428Y5166203D01*
X53357857Y5166203D01*
X53429285Y4847155D01*
X53179285Y5453346D02*
X53679285Y5453346D01*
X53250714Y5453346D02*
X53215000Y5485250D01*
X53179285Y5549060D01*
X53179285Y5644774D01*
X53215000Y5708584D01*
X53286428Y5740489D01*
X53679285Y5740489D01*
X53679285Y6346679D02*
X53286428Y6346679D01*
X53215000Y6314774D01*
X53179285Y6250965D01*
X53179285Y6123346D01*
X53215000Y6059536D01*
X53643571Y6346679D02*
X53679285Y6282870D01*
X53679285Y6123346D01*
X53643571Y6059536D01*
X53572142Y6027631D01*
X53500714Y6027631D01*
X53429285Y6059536D01*
X53393571Y6123346D01*
X53393571Y6282870D01*
X53357857Y6346679D01*
X55469285Y4240965D02*
X55469285Y4687631D01*
X56219285Y4240965D01*
X56219285Y4687631D01*
X56183571Y5198108D02*
X56219285Y5134298D01*
X56219285Y5006679D01*
X56183571Y4942870D01*
X56112142Y4910965D01*
X55826428Y4910965D01*
X55755000Y4942870D01*
X55719285Y5006679D01*
X55719285Y5134298D01*
X55755000Y5198108D01*
X55826428Y5230012D01*
X55897857Y5230012D01*
X55969285Y4910965D01*
X55719285Y5517155D02*
X56219285Y5517155D01*
X55790714Y5517155D02*
X55755000Y5549060D01*
X55719285Y5612870D01*
X55719285Y5708584D01*
X55755000Y5772393D01*
X55826428Y5804298D01*
X56219285Y5804298D01*
X56219285Y6410489D02*
X55826428Y6410489D01*
X55755000Y6378584D01*
X55719285Y6314774D01*
X55719285Y6187155D01*
X55755000Y6123346D01*
X56183571Y6410489D02*
X56219285Y6346679D01*
X56219285Y6187155D01*
X56183571Y6123346D01*
X56112142Y6091441D01*
X56040714Y6091441D01*
X55969285Y6123346D01*
X55933571Y6187155D01*
X55933571Y6346679D01*
X55897857Y6410489D01*
X59486333Y4407155D02*
X59454428Y4383346D01*
X59358714Y4335727D01*
X59294904Y4311917D01*
X59199190Y4288108D01*
X59039666Y4264298D01*
X58912047Y4264298D01*
X58752523Y4288108D01*
X58656809Y4311917D01*
X58593000Y4335727D01*
X58497285Y4383346D01*
X58465380Y4407155D01*
X59231095Y4597631D02*
X58784428Y4597631D01*
X58912047Y4597631D02*
X58848238Y4621441D01*
X58816333Y4645250D01*
X58784428Y4692870D01*
X58784428Y4740489D01*
X59199190Y5097631D02*
X59231095Y5050012D01*
X59231095Y4954774D01*
X59199190Y4907155D01*
X59135380Y4883346D01*
X58880142Y4883346D01*
X58816333Y4907155D01*
X58784428Y4954774D01*
X58784428Y5050012D01*
X58816333Y5097631D01*
X58880142Y5121441D01*
X58943952Y5121441D01*
X59007761Y4883346D01*
X58784428Y5288108D02*
X59231095Y5407155D01*
X58784428Y5526203D01*
X59486333Y5669060D02*
X59454428Y5692870D01*
X59358714Y5740489D01*
X59294904Y5764298D01*
X59199190Y5788108D01*
X59039666Y5811917D01*
X58912047Y5811917D01*
X58752523Y5788108D01*
X58656809Y5764298D01*
X58593000Y5740489D01*
X58497285Y5692870D01*
X58465380Y5669060D01*
X57501285Y4240965D02*
X58251285Y4687631D01*
X57501285Y4687631D02*
X58251285Y4240965D01*
X58251285Y5230012D02*
X57501285Y5230012D01*
X58215571Y5230012D02*
X58251285Y5166203D01*
X58251285Y5038584D01*
X58215571Y4974774D01*
X58179857Y4942870D01*
X58108428Y4910965D01*
X57894142Y4910965D01*
X57822714Y4942870D01*
X57787000Y4974774D01*
X57751285Y5038584D01*
X57751285Y5166203D01*
X57787000Y5230012D01*
X58251285Y5549060D02*
X57751285Y5549060D01*
X57501285Y5549060D02*
X57537000Y5517155D01*
X57572714Y5549060D01*
X57537000Y5580965D01*
X57501285Y5549060D01*
X57572714Y5549060D01*
X58251285Y5868108D02*
X57751285Y5868108D01*
X57894142Y5868108D02*
X57822714Y5900012D01*
X57787000Y5931917D01*
X57751285Y5995727D01*
X57751285Y6059536D01*
X63446428Y4528108D02*
X63482142Y4623822D01*
X63517857Y4655727D01*
X63589285Y4687631D01*
X63696428Y4687631D01*
X63767857Y4655727D01*
X63803571Y4623822D01*
X63839285Y4560012D01*
X63839285Y4304774D01*
X63089285Y4304774D01*
X63089285Y4528108D01*
X63125000Y4591917D01*
X63160714Y4623822D01*
X63232142Y4655727D01*
X63303571Y4655727D01*
X63375000Y4623822D01*
X63410714Y4591917D01*
X63446428Y4528108D01*
X63446428Y4304774D01*
X63089285Y4879060D02*
X63089285Y5261917D01*
X63839285Y5070489D02*
X63089285Y5070489D01*
X63839285Y5485250D02*
X63089285Y5485250D01*
X63839285Y5868108D01*
X63089285Y5868108D01*
X45309285Y47166965D02*
X46059285Y47613631D01*
X45309285Y47613631D02*
X46059285Y47166965D01*
X45559285Y47868870D02*
X46309285Y47868870D01*
X45595000Y47868870D02*
X45559285Y47932679D01*
X45559285Y48060298D01*
X45595000Y48124108D01*
X45630714Y48156012D01*
X45702142Y48187917D01*
X45916428Y48187917D01*
X45987857Y48156012D01*
X46023571Y48124108D01*
X46059285Y48060298D01*
X46059285Y47932679D01*
X46023571Y47868870D01*
X45559285Y48762203D02*
X46059285Y48762203D01*
X45559285Y48475060D02*
X45952142Y48475060D01*
X46023571Y48506965D01*
X46059285Y48570774D01*
X46059285Y48666489D01*
X46023571Y48730298D01*
X45987857Y48762203D01*
X46059285Y49176965D02*
X46023571Y49113155D01*
X45952142Y49081250D01*
X45309285Y49081250D01*
X47849285Y47166965D02*
X48599285Y47613631D01*
X47849285Y47613631D02*
X48599285Y47166965D01*
X48599285Y48156012D02*
X47849285Y48156012D01*
X48563571Y48156012D02*
X48599285Y48092203D01*
X48599285Y47964584D01*
X48563571Y47900774D01*
X48527857Y47868870D01*
X48456428Y47836965D01*
X48242142Y47836965D01*
X48170714Y47868870D01*
X48135000Y47900774D01*
X48099285Y47964584D01*
X48099285Y48092203D01*
X48135000Y48156012D01*
X48599285Y48475060D02*
X48099285Y48475060D01*
X47849285Y48475060D02*
X47885000Y48443155D01*
X47920714Y48475060D01*
X47885000Y48506965D01*
X47849285Y48475060D01*
X47920714Y48475060D01*
X48599285Y48794108D02*
X48099285Y48794108D01*
X48242142Y48794108D02*
X48170714Y48826012D01*
X48135000Y48857917D01*
X48099285Y48921727D01*
X48099285Y48985536D01*
X50782142Y47358393D02*
X51139285Y47358393D01*
X50389285Y47135060D02*
X50782142Y47358393D01*
X50389285Y47581727D01*
X50639285Y47805060D02*
X51389285Y47805060D01*
X50675000Y47805060D02*
X50639285Y47868870D01*
X50639285Y47996489D01*
X50675000Y48060298D01*
X50710714Y48092203D01*
X50782142Y48124108D01*
X50996428Y48124108D01*
X51067857Y48092203D01*
X51103571Y48060298D01*
X51139285Y47996489D01*
X51139285Y47868870D01*
X51103571Y47805060D01*
X50639285Y48698393D02*
X51139285Y48698393D01*
X50639285Y48411250D02*
X51032142Y48411250D01*
X51103571Y48443155D01*
X51139285Y48506965D01*
X51139285Y48602679D01*
X51103571Y48666489D01*
X51067857Y48698393D01*
X51139285Y49113155D02*
X51103571Y49049346D01*
X51032142Y49017441D01*
X50389285Y49017441D01*
X53322142Y47358393D02*
X53679285Y47358393D01*
X52929285Y47135060D02*
X53322142Y47358393D01*
X52929285Y47581727D01*
X53679285Y48092203D02*
X52929285Y48092203D01*
X53643571Y48092203D02*
X53679285Y48028393D01*
X53679285Y47900774D01*
X53643571Y47836965D01*
X53607857Y47805060D01*
X53536428Y47773155D01*
X53322142Y47773155D01*
X53250714Y47805060D01*
X53215000Y47836965D01*
X53179285Y47900774D01*
X53179285Y48028393D01*
X53215000Y48092203D01*
X53679285Y48411250D02*
X53179285Y48411250D01*
X52929285Y48411250D02*
X52965000Y48379346D01*
X53000714Y48411250D01*
X52965000Y48443155D01*
X52929285Y48411250D01*
X53000714Y48411250D01*
X53679285Y48730298D02*
X53179285Y48730298D01*
X53322142Y48730298D02*
X53250714Y48762203D01*
X53215000Y48794108D01*
X53179285Y48857917D01*
X53179285Y48921727D01*
X55469285Y47166965D02*
X55469285Y47613631D01*
X56219285Y47166965D01*
X56219285Y47613631D01*
X55719285Y47868870D02*
X56469285Y47868870D01*
X55755000Y47868870D02*
X55719285Y47932679D01*
X55719285Y48060298D01*
X55755000Y48124108D01*
X55790714Y48156012D01*
X55862142Y48187917D01*
X56076428Y48187917D01*
X56147857Y48156012D01*
X56183571Y48124108D01*
X56219285Y48060298D01*
X56219285Y47932679D01*
X56183571Y47868870D01*
X55719285Y48762203D02*
X56219285Y48762203D01*
X55719285Y48475060D02*
X56112142Y48475060D01*
X56183571Y48506965D01*
X56219285Y48570774D01*
X56219285Y48666489D01*
X56183571Y48730298D01*
X56147857Y48762203D01*
X56219285Y49176965D02*
X56183571Y49113155D01*
X56112142Y49081250D01*
X55469285Y49081250D01*
X58009285Y47166965D02*
X58009285Y47613631D01*
X58759285Y47166965D01*
X58759285Y47613631D01*
X58759285Y48156012D02*
X58009285Y48156012D01*
X58723571Y48156012D02*
X58759285Y48092203D01*
X58759285Y47964584D01*
X58723571Y47900774D01*
X58687857Y47868870D01*
X58616428Y47836965D01*
X58402142Y47836965D01*
X58330714Y47868870D01*
X58295000Y47900774D01*
X58259285Y47964584D01*
X58259285Y48092203D01*
X58295000Y48156012D01*
X58759285Y48475060D02*
X58259285Y48475060D01*
X58009285Y48475060D02*
X58045000Y48443155D01*
X58080714Y48475060D01*
X58045000Y48506965D01*
X58009285Y48475060D01*
X58080714Y48475060D01*
X58759285Y48794108D02*
X58259285Y48794108D01*
X58402142Y48794108D02*
X58330714Y48826012D01*
X58295000Y48857917D01*
X58259285Y48921727D01*
X58259285Y48985536D01*
X63839285Y47613631D02*
X63482142Y47390298D01*
X63839285Y47230774D02*
X63089285Y47230774D01*
X63089285Y47486012D01*
X63125000Y47549822D01*
X63160714Y47581727D01*
X63232142Y47613631D01*
X63339285Y47613631D01*
X63410714Y47581727D01*
X63446428Y47549822D01*
X63482142Y47486012D01*
X63482142Y47230774D01*
X63089285Y47836965D02*
X63839285Y48283631D01*
X63089285Y48283631D02*
X63839285Y47836965D01*
X60549285Y47135060D02*
X60549285Y47517917D01*
X61299285Y47326489D02*
X60549285Y47326489D01*
X60549285Y47677441D02*
X61299285Y48124108D01*
X60549285Y48124108D02*
X61299285Y47677441D01*
D10*
X49871380Y17757239D02*
X50871380Y18203905D01*
X49871380Y18203905D02*
X50871380Y17757239D01*
X50966619Y18299620D02*
X50966619Y18810096D01*
X50347571Y18969620D02*
X50347571Y19192953D01*
X50871380Y19288667D02*
X50871380Y18969620D01*
X49871380Y18969620D01*
X49871380Y19288667D01*
X50871380Y19575810D02*
X49871380Y19575810D01*
X50871380Y19958667D01*
X49871380Y19958667D01*
X50585666Y20245810D02*
X50585666Y20564858D01*
X50871380Y20182000D02*
X49871380Y20405334D01*
X50871380Y20628667D01*
X49871380Y12788905D02*
X50871380Y13235572D01*
X49871380Y13235572D02*
X50871380Y12788905D01*
X50966619Y13331286D02*
X50966619Y13841762D01*
X50871380Y14001286D02*
X49871380Y14001286D01*
X49871380Y14160810D01*
X49919000Y14256524D01*
X50014238Y14320334D01*
X50109476Y14352239D01*
X50299952Y14384143D01*
X50442809Y14384143D01*
X50633285Y14352239D01*
X50728523Y14320334D01*
X50823761Y14256524D01*
X50871380Y14160810D01*
X50871380Y14001286D01*
X50871380Y14671286D02*
X49871380Y14671286D01*
X50871380Y15373191D02*
X50395190Y15149858D01*
X50871380Y14990334D02*
X49871380Y14990334D01*
X49871380Y15245572D01*
X49919000Y15309381D01*
X49966619Y15341286D01*
X50061857Y15373191D01*
X50204714Y15373191D01*
X50299952Y15341286D01*
X50347571Y15309381D01*
X50395190Y15245572D01*
X50395190Y14990334D01*
X49871380Y7708286D02*
X50871380Y8154953D01*
X49871380Y8154953D02*
X50871380Y7708286D01*
X50966619Y8250667D02*
X50966619Y8761143D01*
X50871380Y8920667D02*
X49871380Y8920667D01*
X49871380Y9175905D01*
X49919000Y9239715D01*
X49966619Y9271620D01*
X50061857Y9303524D01*
X50204714Y9303524D01*
X50299952Y9271620D01*
X50347571Y9239715D01*
X50395190Y9175905D01*
X50395190Y8920667D01*
X49871380Y9590667D02*
X50680904Y9590667D01*
X50776142Y9622572D01*
X50823761Y9654477D01*
X50871380Y9718286D01*
X50871380Y9845905D01*
X50823761Y9909715D01*
X50776142Y9941620D01*
X50680904Y9973524D01*
X49871380Y9973524D01*
X50871380Y10611620D02*
X50871380Y10292572D01*
X49871380Y10292572D01*
X50395190Y38046572D02*
X50871380Y38046572D01*
X49871380Y37823239D02*
X50395190Y38046572D01*
X49871380Y38269905D01*
X50966619Y38333715D02*
X50966619Y38844191D01*
X50347571Y39003715D02*
X50347571Y39227048D01*
X50871380Y39322762D02*
X50871380Y39003715D01*
X49871380Y39003715D01*
X49871380Y39322762D01*
X50871380Y39609905D02*
X49871380Y39609905D01*
X50871380Y39992762D01*
X49871380Y39992762D01*
X50585666Y40279905D02*
X50585666Y40598953D01*
X50871380Y40216096D02*
X49871380Y40439429D01*
X50871380Y40662762D01*
X50395190Y33078239D02*
X50871380Y33078239D01*
X49871380Y32854905D02*
X50395190Y33078239D01*
X49871380Y33301572D01*
X50966619Y33365381D02*
X50966619Y33875858D01*
X50871380Y34035381D02*
X49871380Y34035381D01*
X49871380Y34194905D01*
X49919000Y34290620D01*
X50014238Y34354429D01*
X50109476Y34386334D01*
X50299952Y34418239D01*
X50442809Y34418239D01*
X50633285Y34386334D01*
X50728523Y34354429D01*
X50823761Y34290620D01*
X50871380Y34194905D01*
X50871380Y34035381D01*
X50871380Y34705381D02*
X49871380Y34705381D01*
X50871380Y35407286D02*
X50395190Y35183953D01*
X50871380Y35024429D02*
X49871380Y35024429D01*
X49871380Y35279667D01*
X49919000Y35343477D01*
X49966619Y35375381D01*
X50061857Y35407286D01*
X50204714Y35407286D01*
X50299952Y35375381D01*
X50347571Y35343477D01*
X50395190Y35279667D01*
X50395190Y35024429D01*
X50395190Y27997620D02*
X50871380Y27997620D01*
X49871380Y27774286D02*
X50395190Y27997620D01*
X49871380Y28220953D01*
X50966619Y28284762D02*
X50966619Y28795239D01*
X50871380Y28954762D02*
X49871380Y28954762D01*
X49871380Y29210000D01*
X49919000Y29273810D01*
X49966619Y29305715D01*
X50061857Y29337620D01*
X50204714Y29337620D01*
X50299952Y29305715D01*
X50347571Y29273810D01*
X50395190Y29210000D01*
X50395190Y28954762D01*
X49871380Y29624762D02*
X50680904Y29624762D01*
X50776142Y29656667D01*
X50823761Y29688572D01*
X50871380Y29752381D01*
X50871380Y29880000D01*
X50823761Y29943810D01*
X50776142Y29975715D01*
X50680904Y30007620D01*
X49871380Y30007620D01*
X50871380Y30645715D02*
X50871380Y30326667D01*
X49871380Y30326667D01*
X26328619Y45885715D02*
X26328619Y45439048D01*
X25328619Y45885715D01*
X25328619Y45439048D01*
X25233380Y45343334D02*
X25233380Y44832858D01*
X25328619Y44673334D02*
X26328619Y44673334D01*
X26328619Y44418096D01*
X26281000Y44354286D01*
X26233380Y44322381D01*
X26138142Y44290477D01*
X25995285Y44290477D01*
X25900047Y44322381D01*
X25852428Y44354286D01*
X25804809Y44418096D01*
X25804809Y44673334D01*
X26328619Y44003334D02*
X25519095Y44003334D01*
X25423857Y43971429D01*
X25376238Y43939524D01*
X25328619Y43875715D01*
X25328619Y43748096D01*
X25376238Y43684286D01*
X25423857Y43652381D01*
X25519095Y43620477D01*
X26328619Y43620477D01*
X25328619Y42982381D02*
X25328619Y43301429D01*
X26328619Y43301429D01*
X26328619Y35836762D02*
X26328619Y35390096D01*
X25328619Y35836762D01*
X25328619Y35390096D01*
X25233380Y35294381D02*
X25233380Y34783905D01*
X25852428Y34624381D02*
X25852428Y34401048D01*
X25328619Y34305334D02*
X25328619Y34624381D01*
X26328619Y34624381D01*
X26328619Y34305334D01*
X25328619Y34018191D02*
X26328619Y34018191D01*
X25328619Y33635334D01*
X26328619Y33635334D01*
X25614333Y33348191D02*
X25614333Y33029143D01*
X25328619Y33412000D02*
X26328619Y33188667D01*
X25328619Y32965334D01*
X26328619Y40805096D02*
X26328619Y40358429D01*
X25328619Y40805096D01*
X25328619Y40358429D01*
X25233380Y40262715D02*
X25233380Y39752239D01*
X25328619Y39592715D02*
X26328619Y39592715D01*
X26328619Y39433191D01*
X26281000Y39337477D01*
X26185761Y39273667D01*
X26090523Y39241762D01*
X25900047Y39209858D01*
X25757190Y39209858D01*
X25566714Y39241762D01*
X25471476Y39273667D01*
X25376238Y39337477D01*
X25328619Y39433191D01*
X25328619Y39592715D01*
X25328619Y38922715D02*
X26328619Y38922715D01*
X25328619Y38220810D02*
X25804809Y38444143D01*
X25328619Y38603667D02*
X26328619Y38603667D01*
X26328619Y38348429D01*
X26281000Y38284620D01*
X26233380Y38252715D01*
X26138142Y38220810D01*
X25995285Y38220810D01*
X25900047Y38252715D01*
X25852428Y38284620D01*
X25804809Y38348429D01*
X25804809Y38603667D01*
X26328619Y20485096D02*
X25328619Y20038429D01*
X26328619Y20038429D02*
X25328619Y20485096D01*
X25233380Y19942715D02*
X25233380Y19432239D01*
X25328619Y19272715D02*
X26328619Y19272715D01*
X26328619Y19113191D01*
X26281000Y19017477D01*
X26185761Y18953667D01*
X26090523Y18921762D01*
X25900047Y18889858D01*
X25757190Y18889858D01*
X25566714Y18921762D01*
X25471476Y18953667D01*
X25376238Y19017477D01*
X25328619Y19113191D01*
X25328619Y19272715D01*
X25328619Y18602715D02*
X26328619Y18602715D01*
X25328619Y17900810D02*
X25804809Y18124143D01*
X25328619Y18283667D02*
X26328619Y18283667D01*
X26328619Y18028429D01*
X26281000Y17964620D01*
X26233380Y17932715D01*
X26138142Y17900810D01*
X25995285Y17900810D01*
X25900047Y17932715D01*
X25852428Y17964620D01*
X25804809Y18028429D01*
X25804809Y18283667D01*
X26328619Y15516762D02*
X25328619Y15070096D01*
X26328619Y15070096D02*
X25328619Y15516762D01*
X25233380Y14974381D02*
X25233380Y14463905D01*
X25852428Y14304381D02*
X25852428Y14081048D01*
X25328619Y13985334D02*
X25328619Y14304381D01*
X26328619Y14304381D01*
X26328619Y13985334D01*
X25328619Y13698191D02*
X26328619Y13698191D01*
X25328619Y13315334D01*
X26328619Y13315334D01*
X25614333Y13028191D02*
X25614333Y12709143D01*
X25328619Y13092000D02*
X26328619Y12868667D01*
X25328619Y12645334D01*
X26328619Y25565715D02*
X25328619Y25119048D01*
X26328619Y25119048D02*
X25328619Y25565715D01*
X25233380Y25023334D02*
X25233380Y24512858D01*
X25328619Y24353334D02*
X26328619Y24353334D01*
X26328619Y24098096D01*
X26281000Y24034286D01*
X26233380Y24002381D01*
X26138142Y23970477D01*
X25995285Y23970477D01*
X25900047Y24002381D01*
X25852428Y24034286D01*
X25804809Y24098096D01*
X25804809Y24353334D01*
X26328619Y23683334D02*
X25519095Y23683334D01*
X25423857Y23651429D01*
X25376238Y23619524D01*
X25328619Y23555715D01*
X25328619Y23428096D01*
X25376238Y23364286D01*
X25423857Y23332381D01*
X25519095Y23300477D01*
X26328619Y23300477D01*
X25328619Y22662381D02*
X25328619Y22981429D01*
X26328619Y22981429D01*
X49919000Y43685524D02*
X49871380Y43621715D01*
X49871380Y43526000D01*
X49919000Y43430286D01*
X50014238Y43366477D01*
X50109476Y43334572D01*
X50299952Y43302667D01*
X50442809Y43302667D01*
X50633285Y43334572D01*
X50728523Y43366477D01*
X50823761Y43430286D01*
X50871380Y43526000D01*
X50871380Y43589810D01*
X50823761Y43685524D01*
X50776142Y43717429D01*
X50442809Y43717429D01*
X50442809Y43589810D01*
X50871380Y44004572D02*
X49871380Y44004572D01*
X50871380Y44387429D01*
X49871380Y44387429D01*
X50871380Y44706477D02*
X49871380Y44706477D01*
X49871380Y44866000D01*
X49919000Y44961715D01*
X50014238Y45025524D01*
X50109476Y45057429D01*
X50299952Y45089334D01*
X50442809Y45089334D01*
X50633285Y45057429D01*
X50728523Y45025524D01*
X50823761Y44961715D01*
X50871380Y44866000D01*
X50871380Y44706477D01*
X49919000Y23619524D02*
X49871380Y23555715D01*
X49871380Y23460000D01*
X49919000Y23364286D01*
X50014238Y23300477D01*
X50109476Y23268572D01*
X50299952Y23236667D01*
X50442809Y23236667D01*
X50633285Y23268572D01*
X50728523Y23300477D01*
X50823761Y23364286D01*
X50871380Y23460000D01*
X50871380Y23523810D01*
X50823761Y23619524D01*
X50776142Y23651429D01*
X50442809Y23651429D01*
X50442809Y23523810D01*
X50871380Y23938572D02*
X49871380Y23938572D01*
X50871380Y24321429D01*
X49871380Y24321429D01*
X50871380Y24640477D02*
X49871380Y24640477D01*
X49871380Y24800000D01*
X49919000Y24895715D01*
X50014238Y24959524D01*
X50109476Y24991429D01*
X50299952Y25023334D01*
X50442809Y25023334D01*
X50633285Y24991429D01*
X50728523Y24959524D01*
X50823761Y24895715D01*
X50871380Y24800000D01*
X50871380Y24640477D01*
X26281000Y29974477D02*
X26328619Y30038286D01*
X26328619Y30134000D01*
X26281000Y30229715D01*
X26185761Y30293524D01*
X26090523Y30325429D01*
X25900047Y30357334D01*
X25757190Y30357334D01*
X25566714Y30325429D01*
X25471476Y30293524D01*
X25376238Y30229715D01*
X25328619Y30134000D01*
X25328619Y30070191D01*
X25376238Y29974477D01*
X25423857Y29942572D01*
X25757190Y29942572D01*
X25757190Y30070191D01*
X25328619Y29655429D02*
X26328619Y29655429D01*
X25328619Y29272572D01*
X26328619Y29272572D01*
X25328619Y28953524D02*
X26328619Y28953524D01*
X26328619Y28794000D01*
X26281000Y28698286D01*
X26185761Y28634477D01*
X26090523Y28602572D01*
X25900047Y28570667D01*
X25757190Y28570667D01*
X25566714Y28602572D01*
X25471476Y28634477D01*
X25376238Y28698286D01*
X25328619Y28794000D01*
X25328619Y28953524D01*
X26281000Y9654477D02*
X26328619Y9718286D01*
X26328619Y9814000D01*
X26281000Y9909715D01*
X26185761Y9973524D01*
X26090523Y10005429D01*
X25900047Y10037334D01*
X25757190Y10037334D01*
X25566714Y10005429D01*
X25471476Y9973524D01*
X25376238Y9909715D01*
X25328619Y9814000D01*
X25328619Y9750191D01*
X25376238Y9654477D01*
X25423857Y9622572D01*
X25757190Y9622572D01*
X25757190Y9750191D01*
X25328619Y9335429D02*
X26328619Y9335429D01*
X25328619Y8952572D01*
X26328619Y8952572D01*
X25328619Y8633524D02*
X26328619Y8633524D01*
X26328619Y8474000D01*
X26281000Y8378286D01*
X26185761Y8314477D01*
X26090523Y8282572D01*
X25900047Y8250667D01*
X25757190Y8250667D01*
X25566714Y8282572D01*
X25471476Y8314477D01*
X25376238Y8378286D01*
X25328619Y8474000D01*
X25328619Y8633524D01*
X45783523Y30773620D02*
X45307333Y30773620D01*
X45259714Y30297429D01*
X45307333Y30345048D01*
X45402571Y30392667D01*
X45640666Y30392667D01*
X45735904Y30345048D01*
X45783523Y30297429D01*
X45831142Y30202191D01*
X45831142Y29964096D01*
X45783523Y29868858D01*
X45735904Y29821239D01*
X45640666Y29773620D01*
X45402571Y29773620D01*
X45307333Y29821239D01*
X45259714Y29868858D01*
X46116857Y30773620D02*
X46450190Y29773620D01*
X46783523Y30773620D01*
X40462666Y30297429D02*
X40558380Y30249810D01*
X40590285Y30202191D01*
X40622190Y30106953D01*
X40622190Y29964096D01*
X40590285Y29868858D01*
X40558380Y29821239D01*
X40494571Y29773620D01*
X40239333Y29773620D01*
X40239333Y30773620D01*
X40462666Y30773620D01*
X40526476Y30726000D01*
X40558380Y30678381D01*
X40590285Y30583143D01*
X40590285Y30487905D01*
X40558380Y30392667D01*
X40526476Y30345048D01*
X40462666Y30297429D01*
X40239333Y30297429D01*
X40813619Y30773620D02*
X41196476Y30773620D01*
X41005047Y29773620D02*
X41005047Y30773620D01*
X41419809Y29773620D02*
X41419809Y30773620D01*
X41802666Y29773620D01*
X41802666Y30773620D01*
X35574095Y29773620D02*
X35350761Y30249810D01*
X35191238Y29773620D02*
X35191238Y30773620D01*
X35446476Y30773620D01*
X35510285Y30726000D01*
X35542190Y30678381D01*
X35574095Y30583143D01*
X35574095Y30440286D01*
X35542190Y30345048D01*
X35510285Y30297429D01*
X35446476Y30249810D01*
X35191238Y30249810D01*
X35861238Y30297429D02*
X36084571Y30297429D01*
X36180285Y29773620D02*
X35861238Y29773620D01*
X35861238Y30773620D01*
X36180285Y30773620D01*
X36786476Y29773620D02*
X36467428Y29773620D01*
X36467428Y30773620D01*
X30350523Y30726000D02*
X30286714Y30773620D01*
X30191000Y30773620D01*
X30095285Y30726000D01*
X30031476Y30630762D01*
X29999571Y30535524D01*
X29967666Y30345048D01*
X29967666Y30202191D01*
X29999571Y30011715D01*
X30031476Y29916477D01*
X30095285Y29821239D01*
X30191000Y29773620D01*
X30254809Y29773620D01*
X30350523Y29821239D01*
X30382428Y29868858D01*
X30382428Y30202191D01*
X30254809Y30202191D01*
X30669571Y29773620D02*
X30669571Y30773620D01*
X31052428Y29773620D01*
X31052428Y30773620D01*
X31371476Y29773620D02*
X31371476Y30773620D01*
X31531000Y30773620D01*
X31626714Y30726000D01*
X31690523Y30630762D01*
X31722428Y30535524D01*
X31754333Y30345048D01*
X31754333Y30202191D01*
X31722428Y30011715D01*
X31690523Y29916477D01*
X31626714Y29821239D01*
X31531000Y29773620D01*
X31371476Y29773620D01*
X41719523Y43727620D02*
X41243333Y43727620D01*
X41195714Y43251429D01*
X41243333Y43299048D01*
X41338571Y43346667D01*
X41576666Y43346667D01*
X41671904Y43299048D01*
X41719523Y43251429D01*
X41767142Y43156191D01*
X41767142Y42918096D01*
X41719523Y42822858D01*
X41671904Y42775239D01*
X41576666Y42727620D01*
X41338571Y42727620D01*
X41243333Y42775239D01*
X41195714Y42822858D01*
X42052857Y43727620D02*
X42386190Y42727620D01*
X42719523Y43727620D01*
X38859523Y43680000D02*
X38795714Y43727620D01*
X38700000Y43727620D01*
X38604285Y43680000D01*
X38540476Y43584762D01*
X38508571Y43489524D01*
X38476666Y43299048D01*
X38476666Y43156191D01*
X38508571Y42965715D01*
X38540476Y42870477D01*
X38604285Y42775239D01*
X38700000Y42727620D01*
X38763809Y42727620D01*
X38859523Y42775239D01*
X38891428Y42822858D01*
X38891428Y43156191D01*
X38763809Y43156191D01*
X39178571Y42727620D02*
X39178571Y43727620D01*
X39561428Y42727620D01*
X39561428Y43727620D01*
X39880476Y42727620D02*
X39880476Y43727620D01*
X40040000Y43727620D01*
X40135714Y43680000D01*
X40199523Y43584762D01*
X40231428Y43489524D01*
X40263333Y43299048D01*
X40263333Y43156191D01*
X40231428Y42965715D01*
X40199523Y42870477D01*
X40135714Y42775239D01*
X40040000Y42727620D01*
X39880476Y42727620D01*
X36068095Y43727620D02*
X36639523Y43727620D01*
X36353809Y42727620D02*
X36353809Y43727620D01*
X36877619Y43727620D02*
X37544285Y42727620D01*
X37544285Y43727620D02*
X36877619Y42727620D01*
X34123333Y42727620D02*
X33790000Y43203810D01*
X33551904Y42727620D02*
X33551904Y43727620D01*
X33932857Y43727620D01*
X34028095Y43680000D01*
X34075714Y43632381D01*
X34123333Y43537143D01*
X34123333Y43394286D01*
X34075714Y43299048D01*
X34028095Y43251429D01*
X33932857Y43203810D01*
X33551904Y43203810D01*
X34456666Y43727620D02*
X35123333Y42727620D01*
X35123333Y43727620D02*
X34456666Y42727620D01*
D12*
X40970000Y40640000D02*
X40020000Y40640000D01*
X35230000Y40640000D02*
X36180000Y40640000D01*
X40020000Y41560000D02*
X36180000Y41560000D01*
X40020000Y39720000D02*
X40020000Y41560000D01*
X36180000Y39720000D02*
X40020000Y39720000D01*
X36180000Y41560000D02*
X36180000Y39720000D01*
X60180000Y26410000D02*
X60180000Y28410000D01*
X57940000Y26410000D02*
X60180000Y26410000D01*
X56963000Y42910000D02*
X57013000Y42860000D01*
X54530000Y45343000D02*
X54554000Y45318000D01*
X57205000Y43102000D02*
X57230000Y43078000D01*
X54747000Y45560000D02*
X54797000Y45511000D01*
X56963000Y37910000D02*
X57013000Y37860000D01*
X54530000Y40343000D02*
X54554000Y40318000D01*
X57205000Y38102000D02*
X57230000Y38078000D01*
X54747000Y40560000D02*
X54797000Y40511000D01*
X56963000Y32910000D02*
X57013000Y32860000D01*
X54530000Y35343000D02*
X54554000Y35318000D01*
X57205000Y33102000D02*
X57230000Y33078000D01*
X54747000Y35560000D02*
X54797000Y35511000D01*
X49320000Y46771000D02*
X59940000Y46771000D01*
X49320000Y26650000D02*
X59940000Y26650000D01*
X59940000Y26650000D02*
X59940000Y46771000D01*
X49320000Y26650000D02*
X49320000Y46771000D01*
X52880000Y26650000D02*
X52880000Y46771000D01*
X53880000Y26650000D02*
X53880000Y46771000D01*
X57880000Y26650000D02*
X57880000Y46771000D01*
X57660000Y44210000D02*
G75*
G03X57660000Y44210000I-1780000J0D01*
G01*
X57660000Y39210000D02*
G75*
G03X57660000Y39210000I-1780000J0D01*
G01*
X57660000Y34210000D02*
G75*
G03X57660000Y34210000I-1780000J0D01*
G01*
X57660389Y29240814D02*
G75*
G02X57519000Y28514000I-1780389J-30814D01*
G01*
X56575516Y27570795D02*
G75*
G02X55184000Y27571000I-695516J1639205D01*
G01*
X54240795Y28514484D02*
G75*
G02X54241000Y29906000I1639205J695516D01*
G01*
X55184484Y30849205D02*
G75*
G02X56576000Y30849000I695516J-1639205D01*
G01*
X57518499Y29905501D02*
G75*
G02X57660000Y29210000I-1638499J-695501D01*
G01*
X28165001Y20424999D02*
X30165001Y20424999D01*
X28165001Y22664999D02*
X28165001Y20424999D01*
X44665001Y23641999D02*
X44615001Y23591999D01*
X47098001Y26074999D02*
X47073001Y26050999D01*
X44857001Y23399999D02*
X44833001Y23374999D01*
X47315001Y25857999D02*
X47266001Y25807999D01*
X39665001Y23641999D02*
X39615001Y23591999D01*
X42098001Y26074999D02*
X42073001Y26050999D01*
X39857001Y23399999D02*
X39833001Y23374999D01*
X42315001Y25857999D02*
X42266001Y25807999D01*
X34665001Y23641999D02*
X34615001Y23591999D01*
X37098001Y26074999D02*
X37073001Y26050999D01*
X34857001Y23399999D02*
X34833001Y23374999D01*
X37315001Y25857999D02*
X37266001Y25807999D01*
X48526001Y31284999D02*
X48526001Y20664999D01*
X28405001Y31284999D02*
X28405001Y20664999D01*
X28405001Y20664999D02*
X48526001Y20664999D01*
X28405001Y31284999D02*
X48526001Y31284999D01*
X28405001Y27724999D02*
X48526001Y27724999D01*
X28405001Y26724999D02*
X48526001Y26724999D01*
X28405001Y22724999D02*
X48526001Y22724999D01*
X47745001Y24724999D02*
G75*
G03X47745001Y24724999I-1780000J0D01*
G01*
X42745001Y24724999D02*
G75*
G03X42745001Y24724999I-1780000J0D01*
G01*
X37745001Y24724999D02*
G75*
G03X37745001Y24724999I-1780000J0D01*
G01*
X30995815Y22944610D02*
G75*
G02X30269001Y23085999I-30814J1780389D01*
G01*
X29325796Y24029483D02*
G75*
G02X29326001Y25420999I1639205J695516D01*
G01*
X30269485Y26364204D02*
G75*
G02X31661001Y26363999I695516J-1639205D01*
G01*
X32604206Y25420515D02*
G75*
G02X32604001Y24028999I-1639205J-695516D01*
G01*
X31660502Y23086500D02*
G75*
G02X30965001Y22944999I-695501J1638499D01*
G01*
X16020000Y27010000D02*
X16020000Y25010000D01*
X18260000Y27010000D02*
X16020000Y27010000D01*
X19237000Y10510000D02*
X19187000Y10560000D01*
X21670000Y8077000D02*
X21646000Y8102000D01*
X18995000Y10318000D02*
X18970000Y10342000D01*
X21453000Y7860000D02*
X21403000Y7909000D01*
X19237000Y15510000D02*
X19187000Y15560000D01*
X21670000Y13077000D02*
X21646000Y13102000D01*
X18995000Y15318000D02*
X18970000Y15342000D01*
X21453000Y12860000D02*
X21403000Y12909000D01*
X19237000Y20510000D02*
X19187000Y20560000D01*
X21670000Y18077000D02*
X21646000Y18102000D01*
X18995000Y20318000D02*
X18970000Y20342000D01*
X21453000Y17860000D02*
X21403000Y17909000D01*
X26880000Y6649000D02*
X16260000Y6649000D01*
X26880000Y26770000D02*
X16260000Y26770000D01*
X16260000Y26770000D02*
X16260000Y6649000D01*
X26880000Y26770000D02*
X26880000Y6649000D01*
X23320000Y26770000D02*
X23320000Y6649000D01*
X22320000Y26770000D02*
X22320000Y6649000D01*
X18320000Y26770000D02*
X18320000Y6649000D01*
X22100000Y9210000D02*
G75*
G03X22100000Y9210000I-1780000J0D01*
G01*
X22100000Y14210000D02*
G75*
G03X22100000Y14210000I-1780000J0D01*
G01*
X22100000Y19210000D02*
G75*
G03X22100000Y19210000I-1780000J0D01*
G01*
X18539611Y24179186D02*
G75*
G02X18681000Y24906000I1780389J30814D01*
G01*
X19624484Y25849205D02*
G75*
G02X21016000Y25849000I695516J-1639205D01*
G01*
X21959205Y24905516D02*
G75*
G02X21959000Y23514000I-1639205J-695516D01*
G01*
X21015516Y22570795D02*
G75*
G02X19624000Y22571000I-695516J1639205D01*
G01*
X18681501Y23514499D02*
G75*
G02X18540000Y24210000I1638499J695501D01*
G01*
X60180000Y6410000D02*
X60180000Y8410000D01*
X57940000Y6410000D02*
X60180000Y6410000D01*
X56963000Y22910000D02*
X57013000Y22860000D01*
X54530000Y25343000D02*
X54554000Y25318000D01*
X57205000Y23102000D02*
X57230000Y23078000D01*
X54747000Y25560000D02*
X54797000Y25511000D01*
X56963000Y17910000D02*
X57013000Y17860000D01*
X54530000Y20343000D02*
X54554000Y20318000D01*
X57205000Y18102000D02*
X57230000Y18078000D01*
X54747000Y20560000D02*
X54797000Y20511000D01*
X56963000Y12910000D02*
X57013000Y12860000D01*
X54530000Y15343000D02*
X54554000Y15318000D01*
X57205000Y13102000D02*
X57230000Y13078000D01*
X54747000Y15560000D02*
X54797000Y15511000D01*
X49320000Y26771000D02*
X59940000Y26771000D01*
X49320000Y6650000D02*
X59940000Y6650000D01*
X59940000Y6650000D02*
X59940000Y26771000D01*
X49320000Y6650000D02*
X49320000Y26771000D01*
X52880000Y6650000D02*
X52880000Y26771000D01*
X53880000Y6650000D02*
X53880000Y26771000D01*
X57880000Y6650000D02*
X57880000Y26771000D01*
X57660000Y24210000D02*
G75*
G03X57660000Y24210000I-1780000J0D01*
G01*
X57660000Y19210000D02*
G75*
G03X57660000Y19210000I-1780000J0D01*
G01*
X57660000Y14210000D02*
G75*
G03X57660000Y14210000I-1780000J0D01*
G01*
X57660389Y9240814D02*
G75*
G02X57519000Y8514000I-1780389J-30814D01*
G01*
X56575516Y7570795D02*
G75*
G02X55184000Y7571000I-695516J1639205D01*
G01*
X54240795Y8514484D02*
G75*
G02X54241000Y9906000I1639205J695516D01*
G01*
X55184484Y10849205D02*
G75*
G02X56576000Y10849000I695516J-1639205D01*
G01*
X57518499Y9905501D02*
G75*
G02X57660000Y9210000I-1638499J-695501D01*
G01*
X30480000Y36500000D02*
X30480000Y37450000D01*
X30480000Y42240000D02*
X30480000Y41290000D01*
X31400000Y37450000D02*
X31400000Y41290000D01*
X29560000Y37450000D02*
X31400000Y37450000D01*
X29560000Y41290000D02*
X29560000Y37450000D01*
X31400000Y41290000D02*
X29560000Y41290000D01*
X32960000Y45720000D02*
X32960000Y47050000D01*
X32960000Y47050000D02*
X34290000Y47050000D01*
X35560000Y47050000D02*
X43240000Y47050000D01*
X43240000Y44390000D02*
X43240000Y47050000D01*
X35560000Y44390000D02*
X43240000Y44390000D01*
X35560000Y44390000D02*
X35560000Y47050000D01*
X40970000Y38100000D02*
X40020000Y38100000D01*
X35230000Y38100000D02*
X36180000Y38100000D01*
X40020000Y39020000D02*
X36180000Y39020000D01*
X40020000Y37180000D02*
X40020000Y39020000D01*
X36180000Y37180000D02*
X40020000Y37180000D01*
X36180000Y39020000D02*
X36180000Y37180000D01*
X40970000Y35560000D02*
X40020000Y35560000D01*
X35230000Y35560000D02*
X36180000Y35560000D01*
X40020000Y36480000D02*
X36180000Y36480000D01*
X40020000Y34640000D02*
X40020000Y36480000D01*
X36180000Y34640000D02*
X40020000Y34640000D01*
X36180000Y36480000D02*
X36180000Y34640000D01*
X16020000Y47010000D02*
X16020000Y45010000D01*
X18260000Y47010000D02*
X16020000Y47010000D01*
X19237000Y30510000D02*
X19187000Y30560000D01*
X21670000Y28077000D02*
X21646000Y28102000D01*
X18995000Y30318000D02*
X18970000Y30342000D01*
X21453000Y27860000D02*
X21403000Y27909000D01*
X19237000Y35510000D02*
X19187000Y35560000D01*
X21670000Y33077000D02*
X21646000Y33102000D01*
X18995000Y35318000D02*
X18970000Y35342000D01*
X21453000Y32860000D02*
X21403000Y32909000D01*
X19237000Y40510000D02*
X19187000Y40560000D01*
X21670000Y38077000D02*
X21646000Y38102000D01*
X18995000Y40318000D02*
X18970000Y40342000D01*
X21453000Y37860000D02*
X21403000Y37909000D01*
X26880000Y26649000D02*
X16260000Y26649000D01*
X26880000Y46770000D02*
X16260000Y46770000D01*
X16260000Y46770000D02*
X16260000Y26649000D01*
X26880000Y46770000D02*
X26880000Y26649000D01*
X23320000Y46770000D02*
X23320000Y26649000D01*
X22320000Y46770000D02*
X22320000Y26649000D01*
X18320000Y46770000D02*
X18320000Y26649000D01*
X22100000Y29210000D02*
G75*
G03X22100000Y29210000I-1780000J0D01*
G01*
X22100000Y34210000D02*
G75*
G03X22100000Y34210000I-1780000J0D01*
G01*
X22100000Y39210000D02*
G75*
G03X22100000Y39210000I-1780000J0D01*
G01*
X18539611Y44179186D02*
G75*
G02X18681000Y44906000I1780389J30814D01*
G01*
X19624484Y45849205D02*
G75*
G02X21016000Y45849000I695516J-1639205D01*
G01*
X21959205Y44905516D02*
G75*
G02X21959000Y43514000I-1639205J-695516D01*
G01*
X21015516Y42570795D02*
G75*
G02X19624000Y42571000I-695516J1639205D01*
G01*
X18681501Y43514499D02*
G75*
G02X18540000Y44210000I1638499J695501D01*
G01*
D13*
X16256000Y2540000D02*
G75*
G03X16256000Y2540000I-2286000J0D01*
G01*
X68326000Y7620000D02*
G75*
G03X68326000Y7620000I-2286000J0D01*
G01*
X17526000Y50800000D02*
G75*
G03X17526000Y50800000I-2286000J0D01*
G01*
X68326000Y35560000D02*
G75*
G03X68326000Y35560000I-2286000J0D01*
G01*
D11*
X38770761Y40413810D02*
X38485047Y40413810D01*
X38627904Y40413810D02*
X38627904Y40913810D01*
X38580285Y40842381D01*
X38532666Y40794762D01*
X38485047Y40770953D01*
X39080285Y40913810D02*
X39127904Y40913810D01*
X39175523Y40890000D01*
X39199333Y40866191D01*
X39223142Y40818572D01*
X39246952Y40723334D01*
X39246952Y40604286D01*
X39223142Y40509048D01*
X39199333Y40461429D01*
X39175523Y40437620D01*
X39127904Y40413810D01*
X39080285Y40413810D01*
X39032666Y40437620D01*
X39008857Y40461429D01*
X38985047Y40509048D01*
X38961238Y40604286D01*
X38961238Y40723334D01*
X38985047Y40818572D01*
X39008857Y40866191D01*
X39032666Y40890000D01*
X39080285Y40913810D01*
X39461238Y40413810D02*
X39461238Y40913810D01*
X39746952Y40413810D02*
X39532666Y40699524D01*
X39746952Y40913810D02*
X39461238Y40628096D01*
D14*
X36964000Y40314286D02*
X36724000Y40657143D01*
X36552571Y40314286D02*
X36552571Y41034286D01*
X36826857Y41034286D01*
X36895428Y41000000D01*
X36929714Y40965715D01*
X36964000Y40897143D01*
X36964000Y40794286D01*
X36929714Y40725715D01*
X36895428Y40691429D01*
X36826857Y40657143D01*
X36552571Y40657143D01*
X37204000Y41034286D02*
X37649714Y41034286D01*
X37409714Y40760000D01*
X37512571Y40760000D01*
X37581142Y40725715D01*
X37615428Y40691429D01*
X37649714Y40622858D01*
X37649714Y40451429D01*
X37615428Y40382858D01*
X37581142Y40348572D01*
X37512571Y40314286D01*
X37306857Y40314286D01*
X37238285Y40348572D01*
X37204000Y40382858D01*
D11*
X30706190Y40040762D02*
X30706190Y39755048D01*
X30706190Y39897905D02*
X30206190Y39897905D01*
X30277619Y39850286D01*
X30325238Y39802667D01*
X30349047Y39755048D01*
X30206190Y40350286D02*
X30206190Y40397905D01*
X30230000Y40445524D01*
X30253809Y40469334D01*
X30301428Y40493143D01*
X30396666Y40516953D01*
X30515714Y40516953D01*
X30610952Y40493143D01*
X30658571Y40469334D01*
X30682380Y40445524D01*
X30706190Y40397905D01*
X30706190Y40350286D01*
X30682380Y40302667D01*
X30658571Y40278858D01*
X30610952Y40255048D01*
X30515714Y40231239D01*
X30396666Y40231239D01*
X30301428Y40255048D01*
X30253809Y40278858D01*
X30230000Y40302667D01*
X30206190Y40350286D01*
X30706190Y40731239D02*
X30206190Y40731239D01*
X30706190Y41016953D02*
X30420476Y40802667D01*
X30206190Y41016953D02*
X30491904Y40731239D01*
D14*
X30805714Y38234000D02*
X30462857Y37994000D01*
X30805714Y37822572D02*
X30085714Y37822572D01*
X30085714Y38096858D01*
X30120000Y38165429D01*
X30154285Y38199715D01*
X30222857Y38234000D01*
X30325714Y38234000D01*
X30394285Y38199715D01*
X30428571Y38165429D01*
X30462857Y38096858D01*
X30462857Y37822572D01*
X30325714Y38851143D02*
X30805714Y38851143D01*
X30051428Y38679715D02*
X30565714Y38508286D01*
X30565714Y38954000D01*
D11*
X38770761Y37873810D02*
X38485047Y37873810D01*
X38627904Y37873810D02*
X38627904Y38373810D01*
X38580285Y38302381D01*
X38532666Y38254762D01*
X38485047Y38230953D01*
X39080285Y38373810D02*
X39127904Y38373810D01*
X39175523Y38350000D01*
X39199333Y38326191D01*
X39223142Y38278572D01*
X39246952Y38183334D01*
X39246952Y38064286D01*
X39223142Y37969048D01*
X39199333Y37921429D01*
X39175523Y37897620D01*
X39127904Y37873810D01*
X39080285Y37873810D01*
X39032666Y37897620D01*
X39008857Y37921429D01*
X38985047Y37969048D01*
X38961238Y38064286D01*
X38961238Y38183334D01*
X38985047Y38278572D01*
X39008857Y38326191D01*
X39032666Y38350000D01*
X39080285Y38373810D01*
X39461238Y37873810D02*
X39461238Y38373810D01*
X39746952Y37873810D02*
X39532666Y38159524D01*
X39746952Y38373810D02*
X39461238Y38088096D01*
D14*
X36964000Y37774286D02*
X36724000Y38117143D01*
X36552571Y37774286D02*
X36552571Y38494286D01*
X36826857Y38494286D01*
X36895428Y38460000D01*
X36929714Y38425715D01*
X36964000Y38357143D01*
X36964000Y38254286D01*
X36929714Y38185715D01*
X36895428Y38151429D01*
X36826857Y38117143D01*
X36552571Y38117143D01*
X37238285Y38425715D02*
X37272571Y38460000D01*
X37341142Y38494286D01*
X37512571Y38494286D01*
X37581142Y38460000D01*
X37615428Y38425715D01*
X37649714Y38357143D01*
X37649714Y38288572D01*
X37615428Y38185715D01*
X37204000Y37774286D01*
X37649714Y37774286D01*
D11*
X38770761Y35333810D02*
X38485047Y35333810D01*
X38627904Y35333810D02*
X38627904Y35833810D01*
X38580285Y35762381D01*
X38532666Y35714762D01*
X38485047Y35690953D01*
X39080285Y35833810D02*
X39127904Y35833810D01*
X39175523Y35810000D01*
X39199333Y35786191D01*
X39223142Y35738572D01*
X39246952Y35643334D01*
X39246952Y35524286D01*
X39223142Y35429048D01*
X39199333Y35381429D01*
X39175523Y35357620D01*
X39127904Y35333810D01*
X39080285Y35333810D01*
X39032666Y35357620D01*
X39008857Y35381429D01*
X38985047Y35429048D01*
X38961238Y35524286D01*
X38961238Y35643334D01*
X38985047Y35738572D01*
X39008857Y35786191D01*
X39032666Y35810000D01*
X39080285Y35833810D01*
X39461238Y35333810D02*
X39461238Y35833810D01*
X39746952Y35333810D02*
X39532666Y35619524D01*
X39746952Y35833810D02*
X39461238Y35548096D01*
D14*
X36964000Y35234286D02*
X36724000Y35577143D01*
X36552571Y35234286D02*
X36552571Y35954286D01*
X36826857Y35954286D01*
X36895428Y35920000D01*
X36929714Y35885715D01*
X36964000Y35817143D01*
X36964000Y35714286D01*
X36929714Y35645715D01*
X36895428Y35611429D01*
X36826857Y35577143D01*
X36552571Y35577143D01*
X37649714Y35234286D02*
X37238285Y35234286D01*
X37444000Y35234286D02*
X37444000Y35954286D01*
X37375428Y35851429D01*
X37306857Y35782858D01*
X37238285Y35748572D01*
M02*
