%TF.GenerationSoftware,KiCad,Pcbnew,(5.0.2)-1*%
%TF.CreationDate,2019-01-10T22:37:42-06:00*%
%TF.ProjectId,ArduinoShield,41726475-696e-46f5-9368-69656c642e6b,rev?*%
%TF.SameCoordinates,PX69db1f0PY7882d48*%
%TF.FileFunction,Copper,L1,Top*%
%TF.FilePolarity,Positive*%
%FSLAX46Y46*%
G04 Gerber Fmt 4.6, Leading zero omitted, Abs format (unit mm)*
G04 Created by KiCad (PCBNEW (5.0.2)-1) date 1/10/2019 10:37:42 PM*
%MOMM*%
%LPD*%
G01*
G04 APERTURE LIST*
%ADD10O,1.400000X1.400000*%
%ADD11C,1.400000*%
%ADD12O,1.727200X2.032000*%
%ADD13C,2.800000*%
%ADD14R,2.800000X2.800000*%
%ADD15O,1.700000X1.700000*%
%ADD16R,1.700000X1.700000*%
%ADD17C,4.064000*%
%ADD18C,0.600000*%
%ADD19C,1.000000*%
%ADD20C,0.250000*%
G04 APERTURE END LIST*
D10*
X41910000Y40640000D03*
D11*
X34290000Y40640000D03*
D12*
X18796000Y50800000D03*
X21336000Y50800000D03*
X23876000Y50800000D03*
X26416000Y50800000D03*
X28956000Y50800000D03*
X31496000Y50800000D03*
X34036000Y50800000D03*
X36576000Y50800000D03*
X39116000Y50800000D03*
X41656000Y50800000D03*
X45720000Y50800000D03*
X48260000Y50800000D03*
X50800000Y50800000D03*
X53340000Y50800000D03*
X55880000Y50800000D03*
X58420000Y50800000D03*
X60960000Y50800000D03*
X63500000Y50800000D03*
X27940000Y2540000D03*
X30480000Y2540000D03*
X33020000Y2540000D03*
X35560000Y2540000D03*
X38100000Y2540000D03*
X40640000Y2540000D03*
X43180000Y2540000D03*
X45720000Y2540000D03*
D13*
X55880000Y44210000D03*
X55880000Y39210000D03*
X55880000Y34210000D03*
D14*
X55880000Y29210000D03*
D13*
X45965001Y24724999D03*
X40965001Y24724999D03*
X35965001Y24724999D03*
D14*
X30965001Y24724999D03*
D13*
X20320000Y9210000D03*
X20320000Y14210000D03*
X20320000Y19210000D03*
D14*
X20320000Y24210000D03*
D13*
X55880000Y24210000D03*
X55880000Y19210000D03*
X55880000Y14210000D03*
D14*
X55880000Y9210000D03*
D10*
X30480000Y35560000D03*
D11*
X30480000Y43180000D03*
D15*
X41910000Y45720000D03*
X39370000Y45720000D03*
X36830000Y45720000D03*
D16*
X34290000Y45720000D03*
D10*
X41910000Y38100000D03*
D11*
X34290000Y38100000D03*
D10*
X41910000Y35560000D03*
D11*
X34290000Y35560000D03*
D13*
X20320000Y29210000D03*
X20320000Y34210000D03*
X20320000Y39210000D03*
D14*
X20320000Y44210000D03*
D12*
X63500000Y2540000D03*
X60960000Y2540000D03*
X58420000Y2540000D03*
X55880000Y2540000D03*
X53340000Y2540000D03*
X50800000Y2540000D03*
D17*
X13970000Y2540000D03*
X66040000Y7620000D03*
X15240000Y50800000D03*
X66040000Y35560000D03*
D18*
X48260000Y43180000D03*
X48260000Y41910000D03*
X48260000Y14660010D03*
X48260000Y45720000D03*
X48260000Y44437571D03*
X27940000Y19210000D03*
D19*
X30965001Y24724999D02*
X30965001Y27948999D01*
X29704000Y29210000D02*
X30965001Y27948999D01*
X20320000Y29210000D02*
X29704000Y29210000D01*
D20*
X45720000Y2540000D02*
X45720000Y2692400D01*
X45965001Y24724999D02*
X46395001Y24724999D01*
D19*
X44814960Y44825000D02*
X44814960Y33389070D01*
X43919960Y45720000D02*
X44814960Y44825000D01*
X41910000Y45720000D02*
X43919960Y45720000D01*
X48260000Y24130000D02*
X48260000Y25400000D01*
X48260000Y29944030D02*
X45184030Y33020000D01*
X48260000Y27940000D02*
X48260000Y29944030D01*
X44814960Y33389070D02*
X45184030Y33020000D01*
X45184030Y33020000D02*
X45965001Y32239029D01*
X45720000Y16510000D02*
X48260000Y19050000D01*
X45720000Y16510000D02*
X45720000Y2540000D01*
X48260000Y19050000D02*
X48260000Y24130000D01*
X48219999Y24724999D02*
X48260000Y24765000D01*
X45965001Y24724999D02*
X48219999Y24724999D01*
X48260000Y27940000D02*
X48260000Y24765000D01*
X48260000Y24765000D02*
X48260000Y24130000D01*
D20*
X60960000Y50800000D02*
X60960000Y50647600D01*
X48260000Y43180000D02*
X48260000Y43180000D01*
X49530000Y44450000D02*
X48260000Y43180000D01*
X60960000Y49530000D02*
X59043980Y47613980D01*
X60960000Y50800000D02*
X60960000Y49530000D01*
X59043980Y47613980D02*
X53333210Y47613980D01*
X49980010Y44900010D02*
X49530000Y44450000D01*
X53333210Y47613980D02*
X52629203Y46909973D01*
X52629203Y46909973D02*
X50722792Y46909972D01*
X49980010Y46167190D02*
X49980010Y44900010D01*
X50722792Y46909972D02*
X49980010Y46167190D01*
X63500000Y50647600D02*
X63500000Y50800000D01*
X48260000Y41910000D02*
X48260000Y41910000D01*
X63500000Y50800000D02*
X63500000Y49530000D01*
X63500000Y49530000D02*
X62230000Y48260000D01*
X53345640Y46990000D02*
X53342820Y46987180D01*
X50430020Y45980790D02*
X50430020Y44080020D01*
X49530000Y43180000D02*
X48260000Y41910000D01*
X59230381Y47163971D02*
X53519611Y47163971D01*
X50430020Y44080020D02*
X49530000Y43180000D01*
X53519611Y47163971D02*
X52815604Y46459964D01*
X52815604Y46459964D02*
X50909194Y46459964D01*
X50909194Y46459964D02*
X50430020Y45980790D01*
X61133971Y47163971D02*
X62230000Y48260000D01*
X59230381Y47163971D02*
X61133971Y47163971D01*
D19*
X35965001Y24724999D02*
X40965001Y24724999D01*
X30480000Y34290000D02*
X30480000Y35560000D01*
X30480000Y34290000D02*
X35965001Y28804999D01*
X35965001Y24724999D02*
X35965001Y28804999D01*
D20*
X45639970Y49449970D02*
X45720000Y49530000D01*
X45639970Y33730800D02*
X45639970Y49449970D01*
X45720000Y49530000D02*
X45720000Y50800000D01*
X46800779Y32569991D02*
X45639970Y33730800D01*
X55880000Y9210000D02*
X54230000Y9210000D01*
X54230000Y9210000D02*
X53340000Y9210000D01*
X53340000Y9210000D02*
X53020000Y9210000D01*
X49530000Y9210000D02*
X53340000Y9210000D01*
X49085010Y9654990D02*
X49530000Y9210000D01*
X46800779Y32569991D02*
X49085010Y30285760D01*
X49085010Y30285760D02*
X49085010Y14605000D01*
X49085010Y14605000D02*
X49085010Y9654990D01*
X49030000Y14660010D02*
X49085010Y14605000D01*
X48260000Y14660010D02*
X49030000Y14660010D01*
X53975000Y14210000D02*
X55880000Y14210000D01*
X50560000Y14210000D02*
X53975000Y14210000D01*
X49535020Y15234980D02*
X50560000Y14210000D01*
X49535020Y30472160D02*
X49535020Y15234980D01*
X48260000Y50800000D02*
X48260000Y49530000D01*
X47948010Y49218010D02*
X47945190Y49218010D01*
X47945190Y49218010D02*
X46089980Y47362800D01*
X46089980Y47362800D02*
X46089980Y33917200D01*
X48260000Y49530000D02*
X47948010Y49218010D01*
X46089980Y33917200D02*
X49535020Y30472160D01*
X55880000Y29210000D02*
X54610000Y29210000D01*
X50800000Y29210000D02*
X53340000Y29210000D01*
X53340000Y29210000D02*
X55880000Y29210000D01*
X49985030Y30024970D02*
X50800000Y29210000D01*
X49985030Y30658560D02*
X49985030Y30024970D01*
X50800000Y49530000D02*
X50038000Y48768000D01*
X50800000Y50800000D02*
X50800000Y49530000D01*
X50038000Y48768000D02*
X48131590Y48768000D01*
X48131590Y48768000D02*
X46539990Y47176400D01*
X46539990Y47176400D02*
X46539990Y34103600D01*
X46539990Y34103600D02*
X49985030Y30658560D01*
X55880000Y34290000D02*
X55880000Y34210000D01*
X53340000Y50800000D02*
X53340000Y49530000D01*
X53340000Y49530000D02*
X52070000Y48260000D01*
X49784000Y48260000D02*
X52070000Y48260000D01*
X49784000Y48260000D02*
X50800000Y48260000D01*
X48260000Y48260000D02*
X49784000Y48260000D01*
X46990000Y46990000D02*
X48260000Y48260000D01*
X46990000Y34925000D02*
X46990000Y46990000D01*
X47705000Y34210000D02*
X46990000Y34925000D01*
X55880000Y34210000D02*
X47705000Y34210000D01*
X48260000Y45720000D02*
X48260000Y45720000D01*
X55880000Y49530000D02*
X55880000Y50800000D01*
X54864000Y48514000D02*
X55880000Y49530000D01*
X52960410Y48514000D02*
X54864000Y48514000D01*
X52256401Y47809991D02*
X52960410Y48514000D01*
X50349990Y47809990D02*
X52256401Y47809991D01*
X48260000Y45720000D02*
X50349990Y47809990D01*
X58420000Y50800000D02*
X58420000Y50647600D01*
X58420000Y49530000D02*
X58420000Y50800000D01*
X48260000Y44437571D02*
X48260000Y44437571D01*
X48885001Y45062572D02*
X48885001Y45075001D01*
X48260000Y44437571D02*
X48885001Y45062572D01*
X48885001Y45075001D02*
X49530000Y45720000D01*
X49530000Y45720000D02*
X49530000Y46353590D01*
X56953990Y48063990D02*
X57150000Y48260000D01*
X53146810Y48063990D02*
X56953990Y48063990D01*
X57150000Y48260000D02*
X58420000Y49530000D01*
X50536392Y47359982D02*
X49530000Y46353590D01*
X52442802Y47359982D02*
X50536392Y47359982D01*
X53146810Y48063990D02*
X52442802Y47359982D01*
X60509990Y18230010D02*
X60509990Y7169990D01*
X60509990Y7169990D02*
X59690000Y6350000D01*
X50800000Y5080000D02*
X50800000Y2540000D01*
X59690000Y6350000D02*
X52070000Y6350000D01*
X52070000Y6350000D02*
X50800000Y5080000D01*
X59530000Y19210000D02*
X59720000Y19020000D01*
X55880000Y19210000D02*
X59530000Y19210000D01*
X59596000Y19144000D02*
X59720000Y19020000D01*
X59720000Y19020000D02*
X60509990Y18230010D01*
X53340000Y2692400D02*
X53340000Y2540000D01*
X59530000Y39210000D02*
X55880000Y39210000D01*
X53340000Y2540000D02*
X53340000Y5080000D01*
X53340000Y5080000D02*
X54159990Y5899990D01*
X54159990Y5899990D02*
X59876401Y5899991D01*
X59876401Y5899991D02*
X60960000Y6983590D01*
X60960000Y6983590D02*
X60960000Y37780000D01*
X60960000Y37780000D02*
X59530000Y39210000D01*
X27780000Y19210000D02*
X27940000Y19050000D01*
X27940000Y19210000D02*
X20320000Y19210000D01*
M02*
