M48
;DRILL file {KiCad (5.0.2)-1} date 1/10/2019 10:37:47 PM
;FORMAT={-:-/ absolute / inch / decimal}
FMAT,2
INCH,TZ
T1C0.0157
T2C0.0276
T3C0.0394
T4C0.0400
T5C0.0551
T6C0.1200
%
G90
G05
T1
X1.1Y0.7563
X1.9Y1.8
X1.9Y1.7495
X1.9Y1.7
X1.9Y1.65
X1.9Y0.5772
T2
X1.35Y1.4
X1.65Y1.4
X1.35Y1.6
X1.65Y1.6
X1.35Y1.5
X1.65Y1.5
X1.2Y1.7
X1.2Y1.4
T3
X1.35Y1.8
X1.45Y1.8
X1.55Y1.8
X1.65Y1.8
T4
X1.8Y2.
X1.9Y2.
X2.Y2.
X2.1Y2.
X2.2Y2.
X2.3Y2.
X2.4Y2.
X2.5Y2.
X1.1Y0.1
X1.2Y0.1
X1.3Y0.1
X1.4Y0.1
X1.5Y0.1
X1.6Y0.1
X1.7Y0.1
X1.8Y0.1
X2.Y0.1
X2.1Y0.1
X2.2Y0.1
X2.3Y0.1
X2.4Y0.1
X2.5Y0.1
X0.74Y2.
X0.84Y2.
X0.94Y2.
X1.04Y2.
X1.14Y2.
X1.24Y2.
X1.34Y2.
X1.44Y2.
X1.54Y2.
X1.64Y2.
T5
X1.2191Y0.9734
X1.4159Y0.9734
X1.6128Y0.9734
X1.8096Y0.9734
X0.8Y1.7406
X0.8Y1.5437
X0.8Y1.3469
X0.8Y1.15
X0.8Y0.9531
X0.8Y0.7563
X0.8Y0.5594
X0.8Y0.3626
X2.2Y1.7406
X2.2Y1.5437
X2.2Y1.3469
X2.2Y1.15
X2.2Y0.9531
X2.2Y0.7563
X2.2Y0.5594
X2.2Y0.3626
T6
X0.6Y2.
X2.6Y0.3
X0.55Y0.1
X2.6Y1.4
T0
M30
