%TF.GenerationSoftware,KiCad,Pcbnew,(5.0.2)-1*%
%TF.CreationDate,2019-01-10T22:37:42-06:00*%
%TF.ProjectId,ArduinoShield,41726475-696e-46f5-9368-69656c642e6b,rev?*%
%TF.SameCoordinates,PX69db1f0PY7882d48*%
%TF.FileFunction,Legend,Bot*%
%TF.FilePolarity,Positive*%
%FSLAX46Y46*%
G04 Gerber Fmt 4.6, Leading zero omitted, Abs format (unit mm)*
G04 Created by KiCad (PCBNEW (5.0.2)-1) date 1/10/2019 10:37:42 PM*
%MOMM*%
%LPD*%
G01*
G04 APERTURE LIST*
%ADD10C,0.150000*%
%ADD11C,0.125000*%
G04 APERTURE END LIST*
D10*
X20066000Y49530000D02*
X42926000Y49530000D01*
X42926000Y52070000D02*
X42926000Y49530000D01*
X42926000Y52070000D02*
X20066000Y52070000D01*
X17246000Y49250000D02*
X18796000Y49250000D01*
X20066000Y52070000D02*
X20066000Y49530000D01*
X18796000Y52350000D02*
X17246000Y52350000D01*
X17246000Y52350000D02*
X17246000Y49250000D01*
X46990000Y49530000D02*
X64770000Y49530000D01*
X64770000Y52070000D02*
X64770000Y49530000D01*
X64770000Y52070000D02*
X46990000Y52070000D01*
X44170000Y49250000D02*
X45720000Y49250000D01*
X46990000Y52070000D02*
X46990000Y49530000D01*
X45720000Y52350000D02*
X44170000Y52350000D01*
X44170000Y52350000D02*
X44170000Y49250000D01*
X29210000Y1270000D02*
X46990000Y1270000D01*
X46990000Y3810000D02*
X46990000Y1270000D01*
X46990000Y3810000D02*
X29210000Y3810000D01*
X26390000Y990000D02*
X27940000Y990000D01*
X29210000Y3810000D02*
X29210000Y1270000D01*
X27940000Y4090000D02*
X26390000Y4090000D01*
X26390000Y4090000D02*
X26390000Y990000D01*
X49250000Y4090000D02*
X49250000Y990000D01*
X50800000Y4090000D02*
X49250000Y4090000D01*
X52070000Y1270000D02*
X52070000Y3810000D01*
X49250000Y990000D02*
X50800000Y990000D01*
X64770000Y3810000D02*
X52070000Y3810000D01*
X64770000Y1270000D02*
X64770000Y3810000D01*
X52070000Y1270000D02*
X64770000Y1270000D01*
D11*
X30706190Y39715239D02*
X30706190Y40000953D01*
X30706190Y39858096D02*
X30206190Y39858096D01*
X30277619Y39905715D01*
X30325238Y39953334D01*
X30349047Y40000953D01*
X30206190Y39405715D02*
X30206190Y39358096D01*
X30230000Y39310477D01*
X30253809Y39286667D01*
X30301428Y39262858D01*
X30396666Y39239048D01*
X30515714Y39239048D01*
X30610952Y39262858D01*
X30658571Y39286667D01*
X30682380Y39310477D01*
X30706190Y39358096D01*
X30706190Y39405715D01*
X30682380Y39453334D01*
X30658571Y39477143D01*
X30610952Y39500953D01*
X30515714Y39524762D01*
X30396666Y39524762D01*
X30301428Y39500953D01*
X30253809Y39477143D01*
X30230000Y39453334D01*
X30206190Y39405715D01*
X30706190Y39024762D02*
X30206190Y39024762D01*
X30706190Y38739048D02*
X30420476Y38953334D01*
X30206190Y38739048D02*
X30491904Y39024762D01*
D10*
D11*
X38445238Y40413810D02*
X38730952Y40413810D01*
X38588095Y40413810D02*
X38588095Y40913810D01*
X38635714Y40842381D01*
X38683333Y40794762D01*
X38730952Y40770953D01*
X38135714Y40913810D02*
X38088095Y40913810D01*
X38040476Y40890000D01*
X38016666Y40866191D01*
X37992857Y40818572D01*
X37969047Y40723334D01*
X37969047Y40604286D01*
X37992857Y40509048D01*
X38016666Y40461429D01*
X38040476Y40437620D01*
X38088095Y40413810D01*
X38135714Y40413810D01*
X38183333Y40437620D01*
X38207142Y40461429D01*
X38230952Y40509048D01*
X38254761Y40604286D01*
X38254761Y40723334D01*
X38230952Y40818572D01*
X38207142Y40866191D01*
X38183333Y40890000D01*
X38135714Y40913810D01*
X37754761Y40413810D02*
X37754761Y40913810D01*
X37469047Y40413810D02*
X37683333Y40699524D01*
X37469047Y40913810D02*
X37754761Y40628096D01*
D10*
D11*
X38445238Y35333810D02*
X38730952Y35333810D01*
X38588095Y35333810D02*
X38588095Y35833810D01*
X38635714Y35762381D01*
X38683333Y35714762D01*
X38730952Y35690953D01*
X38135714Y35833810D02*
X38088095Y35833810D01*
X38040476Y35810000D01*
X38016666Y35786191D01*
X37992857Y35738572D01*
X37969047Y35643334D01*
X37969047Y35524286D01*
X37992857Y35429048D01*
X38016666Y35381429D01*
X38040476Y35357620D01*
X38088095Y35333810D01*
X38135714Y35333810D01*
X38183333Y35357620D01*
X38207142Y35381429D01*
X38230952Y35429048D01*
X38254761Y35524286D01*
X38254761Y35643334D01*
X38230952Y35738572D01*
X38207142Y35786191D01*
X38183333Y35810000D01*
X38135714Y35833810D01*
X37754761Y35333810D02*
X37754761Y35833810D01*
X37469047Y35333810D02*
X37683333Y35619524D01*
X37469047Y35833810D02*
X37754761Y35548096D01*
D10*
D11*
X38445238Y37873810D02*
X38730952Y37873810D01*
X38588095Y37873810D02*
X38588095Y38373810D01*
X38635714Y38302381D01*
X38683333Y38254762D01*
X38730952Y38230953D01*
X38135714Y38373810D02*
X38088095Y38373810D01*
X38040476Y38350000D01*
X38016666Y38326191D01*
X37992857Y38278572D01*
X37969047Y38183334D01*
X37969047Y38064286D01*
X37992857Y37969048D01*
X38016666Y37921429D01*
X38040476Y37897620D01*
X38088095Y37873810D01*
X38135714Y37873810D01*
X38183333Y37897620D01*
X38207142Y37921429D01*
X38230952Y37969048D01*
X38254761Y38064286D01*
X38254761Y38183334D01*
X38230952Y38278572D01*
X38207142Y38326191D01*
X38183333Y38350000D01*
X38135714Y38373810D01*
X37754761Y37873810D02*
X37754761Y38373810D01*
X37469047Y37873810D02*
X37683333Y38159524D01*
X37469047Y38373810D02*
X37754761Y38088096D01*
M02*
